<svg id="Layer_1" data-name="Layer 1" xmlns="http://www.w3.org/2000/svg" xmlns:xlink="http://www.w3.org/1999/xlink" viewBox="0 0 404.29999 138.8"><defs><style>.cls-1{fill:none;}.cls-2{clip-path:url(#clip-path);}.cls-3{clip-path:url(#clip-path-2);}.cls-4{clip-path:url(#clip-path-3);}.cls-5{fill:#d2e4f4;}.cls-6{fill:#43af5a;}.cls-7{fill:#fc0;}.cls-8{fill:url(#linear-gradient);}.cls-9{opacity:0.5;isolation:isolate;}.cls-10{fill:#55575b;}</style><clipPath id="clip-path"><polygon class="cls-1" points="117.575 104.04 59.239 138.575 0.014 102.811 1.37 33.636 61.957 0.225 121.182 35.99 117.575 104.04"/></clipPath><clipPath id="clip-path-2"><polygon class="cls-1" points="90.593 3.115 17.656 10.591 -12.339 77.494 30.603 135.688 102.307 128.622 133.536 62.543 90.593 3.115"/></clipPath><clipPath id="clip-path-3"><rect class="cls-1" x="-15.71485" y="-5.23706" width="146.44189" height="146.44188"/></clipPath><linearGradient id="linear-gradient" x1="12.93486" y1="-151.01791" x2="107.7553" y2="-245.83833" gradientTransform="matrix(1, 0, 0, -1, 0, -129)" gradientUnits="userSpaceOnUse"><stop offset="0.214" stop-color="#2475bb"/><stop offset="0.707" stop-color="#80bd42"/><stop offset="1" stop-color="#fce01d"/></linearGradient></defs><g class="cls-2"><g class="cls-3"><g class="cls-4"><path class="cls-5" d="M-14.03665,47.49907V99.22176c12.0612-9.74412,24.10891-19.48487,36.097-29.33809,3.20117-2.60841,5.33491-2.60841,8.29763.47466,11.73726,12.09045,23.94581,23.82433,35.79893,35.79781,2.48917,2.60728,4.50481,2.60728,7.23132.47466,6.51932-5.21569,13.27486-10.07706,19.67721-15.40972,3.43738-2.84574,6.04466-2.72652,9.482-.11924,11.275,8.45623,22.66018,16.69762,34.15,24.92889V-6.29774h-150.796V25.98732H-45.5366V47.49907ZM90.457,11.564A23.68373,23.68373,0,0,1,114.404,34.9812q.00225.32169-.00224.64451A24.00379,24.00379,0,1,1,66.39425,35.529v-.02249a23.75572,23.75572,0,0,1,23.56113-23.9447q.2497-.00113.50053.00113Z"/><ellipse class="cls-5" cx="89.41322" cy="36.54467" rx="33.04655" ry="35.53122"/><path class="cls-6" d="M104.43376,125.07523h30.88357V98.106c-10.93978-7.83759-21.7817-15.683-32.51677-23.73547-3.27316-2.48243-5.75671-2.596-9.02875.1136-6.09527,5.07846-12.52912,9.70588-18.73687,14.673-2.596,2.03139-4.51381,2.03139-6.88376-.451C56.86271,77.3062,45.23792,66.13022,34.06419,54.619c-2.821-2.93572-4.85238-2.93572-7.90058-.451C14.74917,63.54993,3.27736,72.825-8.20908,82.10234v55.5425l82.47353,3.56,9.72274,12.02634h20.44657Z"/><path class="cls-7" d="M77.90317,65.80065a19.03157,19.03157,0,1,0-.19122,0Z"/></g><path class="cls-7" d="M223.81752,13.36822a21.29578,21.29578,0,0,0,21.0832-21.50613,21.29578,21.29578,0,0,0-21.50612-21.0832A21.29579,21.29579,0,0,0,202.31139-7.9287a21.2958,21.2958,0,0,0,21.29354,21.298Z"/></g></g><path class="cls-8" d="M119.875,34.53128,60.59816.225,60.14824,0,59.8108.225.87141,34.30632l-.33744.225-.33744.225v69.28753l.44992.225L59.8108,138.57505l.44992.225.44992-.225,58.48947-33.74393.78736-.44992.44992-.225v-69.4ZM54.2993,8.8859l-14.50989,25.083H10.76963Zm-16.872,29.24473L30.67855,49.941,10.20724,38.13063ZM32.14079,55.565,56.099,69.4,32.14079,83.235,24.15472,69.4Zm-3.59936-2.02464L21.79265,65.35073,8.1826,41.73ZM4.92069,44.317,19.43057,69.4,4.92069,94.483Zm16.872,29.24473,6.74878,11.81037L8.1826,97.1825ZM30.56607,88.859l6.74878,11.81038H10.20723ZM10.76963,104.83111H39.7894l14.50989,25.083Zm47.354,23.50827L44.626,104.83111h13.61v23.50827Zm0-27.67H42.15148l-7.98606-13.835,23.95819-13.835Zm0-34.86872-23.95819-13.835,7.98606-13.835H58.12361Zm0-31.83177H44.626l13.61-23.50827V33.96888ZM91.86753,53.54035,112.22636,41.73l-13.61,23.50827ZM96.25424,69.4,88.26818,83.235,64.31,69.4,88.26818,55.565ZM89.8429,49.941,83.09411,38.13063h27.22011Zm19.79643-15.97213H80.61955L66.10967,8.88589Zm-47.354-23.50826L75.89541,33.96887h-13.61Zm0,27.67H78.25748l7.98606,13.835-23.95818,13.835Zm0,34.86872,23.95818,13.835-7.98606,13.835H62.28536Zm0,31.83177H75.89541l-13.61,23.50827Zm3.82431,25.083,14.50989-25.083h29.01977Zm16.872-29.24473L89.73042,88.859l20.35883,11.81038Zm8.8859-15.40973,6.74878-11.81037,13.61005,23.50827ZM115.60076,94.483,101.09087,69.4l14.50989-25.083Z"/><path class="cls-9" d="M140.98,80.569h3.74v36.73h18.706V120.7H140.98Zm47.726,29.135q0,1.927.028,3.457.028,1.531.085,2.835.056,1.304.142,2.437.085,1.134.255,2.267h-3.174a24.52447,24.52447,0,0,1-.34-4.251h-.113a9.564,9.564,0,0,1-3.656,3.741,11.457,11.457,0,0,1-5.527,1.19,13.32968,13.32968,0,0,1-3.344-.424,8.76285,8.76285,0,0,1-2.948-1.362,7.7899,7.7899,0,0,1-1.417-10.74,9.559,9.559,0,0,1,3.77-2.636,17.9061,17.9061,0,0,1,4.761-1.133q2.522-.256,4.45-.256h3.967v-1.587q0-3.4-2.097-4.874a8.955,8.955,0,0,0-5.272-1.475,11.958,11.958,0,0,0-7.992,2.948L168.3,97.517a12.11994,12.11994,0,0,1,4.649-2.75,16.68588,16.68588,0,0,1,5.327-.934,11.91694,11.91694,0,0,1,7.596,2.24q2.834,2.239,2.834,7.225Zm-6.802-2.154a29.7986,29.7986,0,0,0-4.166.283,14.5642,14.5642,0,0,0-3.628.964,6.753,6.753,0,0,0-2.579,1.813,4.223,4.223,0,0,0-.964,2.835,4.17279,4.17279,0,0,0,.54,2.125,4.71282,4.71282,0,0,0,1.388,1.531,6.52023,6.52023,0,0,0,1.898.907,7.42562,7.42562,0,0,0,2.126.311,10.918,10.918,0,0,0,4.478-.793,7.61894,7.61894,0,0,0,2.806-2.069,7.19705,7.19705,0,0,0,1.445-2.89,13.64882,13.64882,0,0,0,.397-3.26V107.55Zm15.871-5.668q0-.736-.057-1.786-.057-1.048-.085-2.125-.029-1.077-.085-2.013-.057-.934-.057-1.445h3.401q.056,1.475.085,2.835a8.827,8.827,0,0,0,.142,1.757h.17a9.176,9.176,0,0,1,3.4-3.713,9.908,9.908,0,0,1,5.556-1.56,11.1629,11.1629,0,0,1,4.987.965,8.01806,8.01806,0,0,1,3.032,2.521,9.486,9.486,0,0,1,1.531,3.6,20.42006,20.42006,0,0,1,.425,4.195V120.7h-3.4V105.283a16.607,16.607,0,0,0-.283-3.09,8.18989,8.18989,0,0,0-.993-2.691,5.18708,5.18708,0,0,0-1.983-1.9,6.80318,6.80318,0,0,0-3.316-.709,9.67815,9.67815,0,0,0-3.543.653,7.61985,7.61985,0,0,0-2.89,1.984,9.61292,9.61292,0,0,0-1.928,3.343,14.24776,14.24776,0,0,0-.708,4.733V120.7h-3.401Zm54.415,14.227h-.114a8.829,8.829,0,0,1-1.984,2.352,11.935,11.935,0,0,1-2.579,1.644,12.932,12.932,0,0,1-2.92.964,15.10587,15.10587,0,0,1-3.003.312,14.81406,14.81406,0,0,1-5.555-1.021,12.60992,12.60992,0,0,1-4.365-2.862,13.16829,13.16829,0,0,1-2.833-4.365,15.467,15.467,0,0,1,0-11.052,13.188,13.188,0,0,1,2.833-4.366,12.61,12.61,0,0,1,4.365-2.861,14.81406,14.81406,0,0,1,5.555-1.021,15.03312,15.03312,0,0,1,3.004.312,12.93181,12.93181,0,0,1,2.92.963,12.00972,12.00972,0,0,1,2.578,1.644,8.82909,8.82909,0,0,1,1.984,2.353h.113V77.849h3.401V120.7h-3.4Zm.34-8.503a10.33794,10.33794,0,0,0-.85-4.165,10.65787,10.65787,0,0,0-2.325-3.401,11.19215,11.19215,0,0,0-3.458-2.296,10.82707,10.82707,0,0,0-4.307-.85,10.56584,10.56584,0,0,0-4.308.85,10.00092,10.00092,0,0,0-3.287,2.296,9.71993,9.71993,0,0,0-2.07,3.4,12.59594,12.59594,0,0,0,0,8.333,9.71993,9.71993,0,0,0,2.07,3.4,9.98378,9.98378,0,0,0,3.287,2.296,10.55014,10.55014,0,0,0,4.308.85,10.81011,10.81011,0,0,0,4.307-.85,11.17207,11.17207,0,0,0,3.458-2.295,10.65806,10.65806,0,0,0,2.324-3.401,10.34023,10.34023,0,0,0,.85-4.167Zm11.45,6.405a7.311,7.311,0,0,0,3.174,3.203,9.34492,9.34492,0,0,0,4.42,1.105,7.133,7.133,0,0,0,2.154-.34,6.58205,6.58205,0,0,0,1.928-.964,5.25986,5.25986,0,0,0,1.388-1.501,3.773,3.773,0,0,0,.539-2.013,3.239,3.239,0,0,0-1.162-2.72,8.62376,8.62376,0,0,0-2.862-1.417,34.37859,34.37859,0,0,0-3.742-.88,15.97356,15.97356,0,0,1-3.74-1.132,8.0481,8.0481,0,0,1-2.863-2.126,5.75794,5.75794,0,0,1-1.162-3.854,6.73419,6.73419,0,0,1,.794-3.345,7.29708,7.29708,0,0,1,2.069-2.352,8.95978,8.95978,0,0,1,2.863-1.389,11.733,11.733,0,0,1,3.23-.453,12.226,12.226,0,0,1,5.583,1.19,8.26,8.26,0,0,1,3.657,3.741l-3.061,1.814a7.20723,7.20723,0,0,0-2.41-2.749,6.82992,6.82992,0,0,0-3.77-.936,6.93,6.93,0,0,0-1.898.284,6.64727,6.64727,0,0,0-1.785.794,4.60028,4.60028,0,0,0-1.333,1.303,3.15611,3.15611,0,0,0-.538,1.814,3.015,3.015,0,0,0,1.162,2.607,8.877,8.877,0,0,0,2.863,1.332,34.38152,34.38152,0,0,0,3.74.822,15.18407,15.18407,0,0,1,3.742,1.106,7.65013,7.65013,0,0,1,2.862,2.21,6.41392,6.41392,0,0,1,1.162,4.11,7.71,7.71,0,0,1-.765,3.543,7.34716,7.34716,0,0,1-2.097,2.522,9.36263,9.36263,0,0,1-3.033,1.53,12.36,12.36,0,0,1-3.571.51,14.553,14.553,0,0,1-6.206-1.303,9.419,9.419,0,0,1-4.336-4.025Zm46.025,2.835a12.25016,12.25016,0,0,1-4.364,3.43,12.612,12.612,0,0,1-5.272,1.105,14.81413,14.81413,0,0,1-5.555-1.021,12.61012,12.61012,0,0,1-4.365-2.862,13.16783,13.16783,0,0,1-2.833-4.365,15.46706,15.46706,0,0,1,0-11.052,13.18782,13.18782,0,0,1,2.833-4.366,12.61,12.61,0,0,1,4.365-2.861,14.81393,14.81393,0,0,1,5.555-1.021,12.157,12.157,0,0,1,5.357,1.19,14.09312,14.09312,0,0,1,4.392,3.345l-2.72,2.04a11.79692,11.79692,0,0,0-3.232-2.579,7.95606,7.95606,0,0,0-3.797-.936,10.56605,10.56605,0,0,0-4.308.85,10.00091,10.00091,0,0,0-3.287,2.297,9.71964,9.71964,0,0,0-2.07,3.4,12.59606,12.59606,0,0,0,0,8.333,9.71964,9.71964,0,0,0,2.07,3.4,9.984,9.984,0,0,0,3.287,2.296,10.55016,10.55016,0,0,0,4.308.85,7.962,7.962,0,0,0,3.939-.991,10.28565,10.28565,0,0,0,3.09-2.636Zm25.675-7.142q0,1.927.028,3.457.028,1.531.085,2.835.056,1.304.143,2.437.084,1.134.254,2.267h-3.174a24.478,24.478,0,0,1-.34-4.251h-.113a9.55486,9.55486,0,0,1-3.657,3.741,11.453,11.453,0,0,1-5.526,1.19,13.32457,13.32457,0,0,1-3.344-.424,8.75789,8.75789,0,0,1-2.947-1.362,7.78891,7.78891,0,0,1-1.418-10.74,9.56412,9.56412,0,0,1,3.77-2.636,17.90727,17.90727,0,0,1,4.76-1.133q2.522-.256,4.451-.256h3.967v-1.587q0-3.4-2.097-4.874a8.95291,8.95291,0,0,0-5.271-1.475,11.95994,11.95994,0,0,0-7.993,2.948l-1.984-2.324a12.12394,12.12394,0,0,1,4.648-2.75,16.694,16.694,0,0,1,5.329-.934,11.914,11.914,0,0,1,7.595,2.24q2.834,2.239,2.834,7.225Zm-6.802-2.154a29.81676,29.81676,0,0,0-4.166.283,14.56671,14.56671,0,0,0-3.627.964,6.75282,6.75282,0,0,0-2.58,1.813,4.225,4.225,0,0,0-.963,2.835,4.17312,4.17312,0,0,0,.538,2.125,4.713,4.713,0,0,0,1.389,1.531,6.52277,6.52277,0,0,0,1.9.907,7.41792,7.41792,0,0,0,2.125.311,10.9191,10.9191,0,0,0,4.477-.793,7.625,7.625,0,0,0,2.807-2.069,7.21475,7.21475,0,0,0,1.445-2.89,13.62312,13.62312,0,0,0,.396-3.26V107.55Zm15.135-13.037h3.4v4.592h.114a8.81039,8.81039,0,0,1,1.984-2.353,11.98461,11.98461,0,0,1,2.58-1.644,12.9163,12.9163,0,0,1,2.919-.963,15.02621,15.02621,0,0,1,3.004-.312,14.594,14.594,0,0,1,5.525,1.02,12.814,12.814,0,0,1,7.227,7.228,15.46706,15.46706,0,0,1,0,11.052,12.814,12.814,0,0,1-7.227,7.227,14.59376,14.59376,0,0,1-5.525,1.02,15.09653,15.09653,0,0,1-3.004-.311,12.91626,12.91626,0,0,1-2.92-.964,11.90962,11.90962,0,0,1-2.579-1.643,8.81024,8.81024,0,0,1-1.984-2.353h-.113v17.515h-3.401Zm3.06,13.093a10.34007,10.34007,0,0,0,.85,4.167,10.65576,10.65576,0,0,0,2.324,3.4,11.15982,11.15982,0,0,0,3.458,2.296,10.811,10.811,0,0,0,4.309.85,10.55312,10.55312,0,0,0,4.307-.85,9.99406,9.99406,0,0,0,3.287-2.295,9.74875,9.74875,0,0,0,2.07-3.401,12.59614,12.59614,0,0,0,0-8.332,9.74875,9.74875,0,0,0-2.07-3.401,10.011,10.011,0,0,0-3.287-2.296,10.57005,10.57005,0,0,0-4.307-.85,10.82805,10.82805,0,0,0-4.31.85,11.17975,11.17975,0,0,0-3.457,2.296,10.65571,10.65571,0,0,0-2.323,3.4,10.33787,10.33787,0,0,0-.85,4.166Zm55.435,8.162a11.47,11.47,0,0,1-4.903,4.31,15.604,15.604,0,0,1-6.434,1.303,13.95306,13.95306,0,0,1-5.441-1.021,12.255,12.255,0,0,1-4.194-2.862,12.57012,12.57012,0,0,1-2.693-4.365,15.95974,15.95974,0,0,1-.935-5.583,14.9696,14.9696,0,0,1,.963-5.441,12.99334,12.99334,0,0,1,2.721-4.337,12.79013,12.79013,0,0,1,4.138-2.89,12.939,12.939,0,0,1,5.272-1.05,12.637,12.637,0,0,1,5.299,1.05,11.61387,11.61387,0,0,1,3.854,2.777,11.78964,11.78964,0,0,1,2.353,3.939,13.18538,13.18538,0,0,1,.793,4.478v2.38h-21.992a11.61573,11.61573,0,0,0,.425,2.75,9.71137,9.71137,0,0,0,1.559,3.259,9.85731,9.85731,0,0,0,3.032,2.721,9.45289,9.45289,0,0,0,4.903,1.133,10.95491,10.95491,0,0,0,5.045-1.246,9.091,9.091,0,0,0,3.741-3.4ZM399.9,105.396a7.73289,7.73289,0,0,0-.708-3.287,8.80588,8.80588,0,0,0-1.928-2.693,9.14226,9.14226,0,0,0-2.89-1.842,9.31905,9.31905,0,0,0-3.543-.68,8.668,8.668,0,0,0-4.619,1.133,10.11,10.11,0,0,0-2.92,2.608,10.36172,10.36172,0,0,0-1.53,2.862,7.545,7.545,0,0,0-.453,1.899Z"/><path class="cls-10" d="M166.52538,67.25873a28.49218,28.49218,0,0,1-11.12174-2.12689,25.88255,25.88255,0,0,1-8.69676-5.86013,27.05345,27.05345,0,0,1-5.67438-8.8091,28.97508,28.97508,0,0,1-2.05237-10.97269,28.98177,28.98177,0,0,1,2.05237-10.97384,27.07756,27.07756,0,0,1,5.67438-8.80911,25.90113,25.90113,0,0,1,8.69676-5.86013,30.14,30.14,0,0,1,22.24579,0,25.92418,25.92418,0,0,1,8.69675,5.86013,27.11419,27.11419,0,0,1,5.67323,8.80911,29.00369,29.00369,0,0,1,2.05236,10.97269,28.9968,28.9968,0,0,1-2.05236,10.97384,27.08974,27.08974,0,0,1-5.67323,8.8091,25.90438,25.90438,0,0,1-8.69675,5.859,28.49818,28.49818,0,0,1-11.124,2.128Zm0-6.71891a19.2131,19.2131,0,0,0,14.48234-6.19492,19.91105,19.91105,0,0,0,4.03135-6.68222,24.26717,24.26717,0,0,0,0-16.34782,19.65078,19.65078,0,0,0-32.01082-7.66515q-.50919.47459-.98408.98408a19.90994,19.90994,0,0,0-4.03135,6.68107,24.26717,24.26717,0,0,0,0,16.34782,19.88283,19.88283,0,0,0,4.03135,6.68222A19.21544,19.21544,0,0,0,166.52538,60.541Zm36.13075-30.00807H209.375v5.07587h.14906a12.79809,12.79809,0,0,1,5.33729-4.404,16.48546,16.48546,0,0,1,6.98033-1.56851,18.75461,18.75461,0,0,1,7.42635,1.41831,16.43042,16.43042,0,0,1,5.67323,3.95567,17.81083,17.81083,0,0,1,3.62088,5.9358,20.64651,20.64651,0,0,1,1.26925,7.27844,20.85423,20.85423,0,0,1-1.26925,7.353,17.37967,17.37967,0,0,1-3.62088,5.89682,16.63656,16.63656,0,0,1-5.67323,3.92013,18.75444,18.75444,0,0,1-7.42635,1.41831,16.41437,16.41437,0,0,1-7.16723-1.6052,12.24313,12.24313,0,0,1-5.15154-4.3673h-.14906V86.966H202.655Zm18.3635,5.374a12.149,12.149,0,0,0-4.85228.93331,10.71473,10.71473,0,0,0-3.65757,2.53851,11.19512,11.19512,0,0,0-2.31493,3.88114,15.4249,15.4249,0,0,0,0,9.92931,11.1745,11.1745,0,0,0,2.31493,3.88114,10.68371,10.68371,0,0,0,3.65757,2.53851,13.08,13.08,0,0,0,9.70458,0,10.71,10.71,0,0,0,3.65757-2.53851,11.21811,11.21811,0,0,0,2.31608-3.88114,15.4249,15.4249,0,0,0,0-9.92931,11.23873,11.23873,0,0,0-2.31608-3.88114,10.741,10.741,0,0,0-3.65757-2.53851,12.15718,12.15718,0,0,0-4.85228-.93331Zm32.323,14.7816a8.86986,8.86986,0,0,0,1.00784,4.2171,10.49111,10.49111,0,0,0,2.65087,3.24709,12.2167,12.2167,0,0,0,3.80662,2.09019,13.627,13.627,0,0,0,4.47852.74757,10.01642,10.01642,0,0,0,5.44966-1.45615,17.54929,17.54929,0,0,0,4.25492-3.84445l5.077,3.88114q-5.59987,7.24175-15.67707,7.24174a19.50321,19.50321,0,0,1-7.57769-1.4183,16.46491,16.46491,0,0,1-5.74661-3.92013,17.3626,17.3626,0,0,1-3.62087-5.89682,20.82851,20.82851,0,0,1-1.26925-7.353,19.32557,19.32557,0,0,1,1.38046-7.353,18.2435,18.2435,0,0,1,3.80663-5.89682,17.37877,17.37877,0,0,1,5.78561-3.92013,18.63515,18.63515,0,0,1,7.31626-1.4183,17.48863,17.48863,0,0,1,7.95034,1.643,15.73215,15.73215,0,0,1,5.33729,4.29162,16.96932,16.96932,0,0,1,3.0235,5.97249,24.85846,24.85846,0,0,1,.9333,6.7556v2.38945Zm21.20012-5.37512a14.18631,14.18631,0,0,0-.70858-4.10588,9.05931,9.05931,0,0,0-1.90331-3.24709,8.77827,8.77827,0,0,0-3.17372-2.16587,11.609,11.609,0,0,0-4.44067-.78311,10.788,10.788,0,0,0-4.51634.93331,11.00135,11.00135,0,0,0-3.47067,2.42615,11.21354,11.21354,0,0,0-2.20257,3.32161,9.135,9.135,0,0,0-.78426,3.62088Zm15.22989-14.78046h6.71778v5.44966h.14906a9.90174,9.90174,0,0,1,4.40514-4.592,14.58786,14.58786,0,0,1,7.2406-1.75426,15.356,15.356,0,0,1,4.89014.78426,11.03451,11.03451,0,0,1,4.10471,2.42614A11.72369,11.72369,0,0,1,320.08,37.06262a16.13851,16.13851,0,0,1,1.04453,6.08486V65.915h-6.71777v-20.902a11.81123,11.81123,0,0,0-.67189-4.21709,7.7257,7.7257,0,0,0-1.791-2.83662,6.74872,6.74872,0,0,0-2.57747-1.56851,9.50282,9.50282,0,0,0-3.02235-.485,10.968,10.968,0,0,0-3.88227.67189,8.08905,8.08905,0,0,0-3.13474,2.128,10.01514,10.01514,0,0,0-2.0902,3.6954,16.79764,16.79764,0,0,0-.74642,5.29945V65.915h-6.71889ZM349.493,13.06259H356.659v37.7738a18.46247,18.46247,0,0,1-1.56852,8.17391,14.10288,14.10288,0,0,1-3.919,5.00134,13.95809,13.95809,0,0,1-5.038,2.53851,19.44946,19.44946,0,0,1-4.92682.70859,15.32965,15.32965,0,0,1-9.44315-2.87331,13.24636,13.24636,0,0,1-4.89015-8.69789l7.017-1.56737a8.41582,8.41582,0,0,0,2.464,4.70324,6.87943,6.87943,0,0,0,4.85229,1.71757,7.76458,7.76458,0,0,0,4.29163-1.04568,7.31742,7.31742,0,0,0,2.50182-2.72425,11.429,11.429,0,0,0,1.19245-3.84445,32.329,32.329,0,0,0,.30039-4.40513Zm21.0488,41.804a11.76846,11.76846,0,0,0,4.96579,4.29276,14.83324,14.83324,0,0,0,6.23392,1.38162,12.683,12.683,0,0,0,3.65641-.56067,11.11047,11.11047,0,0,0,3.39731-1.67973,9.17257,9.17257,0,0,0,2.49952-2.76094,7.34987,7.34987,0,0,0,.97113-3.80777,5.70988,5.70988,0,0,0-1.94-4.6654,16.804,16.804,0,0,0-4.81561-2.68756q-2.87445-1.08122-6.27175-2.0902a25.47083,25.47083,0,0,1-6.26944-2.79878,15.32048,15.32048,0,0,1-4.81561-4.8156,14.98013,14.98013,0,0,1-1.94-8.17506,14.08557,14.08557,0,0,1,4.18039-9.70344,17.5003,17.5003,0,0,1,5.56088-3.62087,20.69459,20.69459,0,0,1,8.17506-1.45615,28.54558,28.54558,0,0,1,8.28514,1.19473,14.24507,14.24507,0,0,1,6.94364,4.85229l-5.82457,5.3006a9.668,9.668,0,0,0-3.80663-3.35945,12.04935,12.04935,0,0,0-5.5987-1.26926,13.57092,13.57092,0,0,0-4.96464.78426,8.89988,8.89988,0,0,0-3.17141,2.01567,7.10163,7.10163,0,0,0-1.67972,2.64973,8.09119,8.09119,0,0,0-.485,2.61189,6.66044,6.66044,0,0,0,1.94113,5.15155,15.06885,15.06885,0,0,0,4.81446,2.91229,57.88424,57.88424,0,0,0,6.26944,2.01452,26.90093,26.90093,0,0,1,6.27175,2.50068,14.60735,14.60735,0,0,1,4.81561,4.3306,12.74174,12.74174,0,0,1,1.94,7.502,15.78583,15.78583,0,0,1-1.45614,6.868,15.21041,15.21041,0,0,1-3.919,5.1504,17.37742,17.37742,0,0,1-5.82229,3.2104,22.52571,22.52571,0,0,1-7.16607,1.11905,26.064,26.064,0,0,1-9.6312-1.79094,15.82861,15.82861,0,0,1-7.2406-5.52419Z"/></svg>